<svg xmlns="http://www.w3.org/2000/svg" viewBox="0 0 1891.42 488.48"><defs><style>.cls-1{fill:#ed1e79;}</style></defs><g id="Layer_15" data-name="Layer 15"><g id="Layer_7" data-name="Layer 7"><path d="M879.12,1703.64c3.83,0,10.73-6.39,15.07-14.31,4.6-7.92,5.11-14.31,1.28-14.31s-10.73,6.39-15.08,14.31C875.79,1697.25,875.28,1703.64,879.12,1703.64Z" transform="translate(-54.09 -1549.03)"/></g><g id="Layer_6" data-name="Layer 6"><path d="M1855.8,1759.35c-1-1-3.57-.51-6.38,3.06-8.18,8.95-26.83,25.56-37.82,33.48-8.18,5.88-25,16.61-39.86,16.61-4.86,0-9.46-1-13.29-3.83-4.86-3.33-6.9-8.44-6.9-14.57a40.29,40.29,0,0,1,2.81-13.8,117.27,117.27,0,0,0,41.65-18.65c15.84-11.25,41.14-36.8,31.69-43.7-2.3-1.79-5.63-2.55-9.46-2.55-16.1,0-42.93,13.8-63.12,34.49C1750.66,1754.5,1738,1773,1736,1778c-9,6-23.81,13.8-33.77,13.8a18.47,18.47,0,0,1-9.46-2.3,13.46,13.46,0,0,1-6.13-6.39c2-2.3,4.34-4.6,6.64-7.15,23.25-26.32,39.35-56.22,30.41-59.8-8.43-3.57-28.62,6.9-40.37,29.13a62.11,62.11,0,0,0-6.65,26.83,38.58,38.58,0,0,0,1.28,9.71c-17.12,16.36-36.54,29.9-47,27.35-4.34-1-5.88-5.37-5.88-10.22a35.5,35.5,0,0,1,3.33-14.06c13.54-29.64,37-64.14,36.79-64.9-1-2.81-5.62-2-6.9-1.28-2.8,1.78-27.92,28.17-39.22,45.8A284.14,284.14,0,0,1,1590.3,1790c-18.91,14.57-38.84,23.77-46,22.49a3,3,0,0,1-2.3-1.53c-.77-2.56.26-8.18,5.11-13.8,15.33-18.66,40.88-38.84,42.42-53.66,1-11.76-11-14.31-16.61-17.38a15.7,15.7,0,0,1-5.62-4.86s3.83-3.83,4.6-8.17c.51-4.35-.51-8.43-6.14-8.43-3.32,0-7.15,2.55-8.68,8.43a9.47,9.47,0,0,0,1,8.17c-.77,3.84-10.22,15.34-18.66,24.79-6.15,7.1-11.81,13.8-16.68,19.1-7.46,7.47-20.44,18.78-26.76,24.09-7.92,6.38-21.72,16.86-31.18,19.93-5.87,2-10.47,1.53-9.2-6.65,1.54-10,7.93-21.46,19.94-40.12,11.49-18.39,27.59-38.58,27.34-42.67,0-3.32-6.13-1.53-8.18-.51-1.79,1-18.4,25.55-30.66,41.91-17.12,22.23-33,40.63-50.34,48-6.39,2.81-10.23,1-9.46-7.16,1.28-11.24,8.18-21.21,20.19-39.61,11.5-18.39,27.6-38.58,27.34-42.67,0-3.32-6.13-1.53-8.18-.51-1.78,1-23.5,26.57-34,39.61-1.58,1.94-3.44,4.27-5.42,6.81a19.27,19.27,0,0,0-3.28,3.15c-9.2,10.48-37.57,35-87.65,45a136.61,136.61,0,0,1-24,2c-23.51,0-49.57-5.88-60-25.55a46.55,46.55,0,0,1-5.11-22c0-28.36,21.21-67.71,76.4-106.81,40.63-29.13,78.19-39.86,100.68-39.86,7.67,0,13.54,1.28,17.12,3.57a14.59,14.59,0,0,1,6.65,12.53c-7.92.76-16.87,3.06-24.54,8.17-9.71,6.39-13.54,16.87-9.71,21.72,2,2.81,5.63,3.84,9.71,3.84a29.89,29.89,0,0,0,17.64-6.39c4.6-3.84,11.5-13.55,13-23.51h3.83c2.81.51,4.09-.51,4.34-1.54,0-1-1-2.29-3.32-2.29a22.92,22.92,0,0,0-4.34-.26c0-6.13-2-12-8.18-16.35-4.85-3.58-13-5.37-23.76-5.37-35.27,0-97.36,20.19-150.25,64.91-37.57,31.68-49.32,61.58-49.32,84.57,0,14.83,4.85,26.84,10.73,34.25,13.55,17.37,39.1,25.29,68,25.29a178.52,178.52,0,0,0,36.29-3.83c37.15-7.61,59.64-21.39,74.68-33.77a39.57,39.57,0,0,0-4.14,10.77c-1.53,7.41,0,19.42,13,21.21,10.48,1.54,27.34-7.92,37.56-16.35,0,6.9,3.07,15.08,13.55,16.35,14,1.79,37.3-16.35,46.76-23.25,5.9-4.43,14.61-11.67,22-18.37a12.57,12.57,0,0,0,1.46-1c5.88-4.86,17.64-17.89,23-24.28,6.65-7.66,20.19-24.53,20.19-24.53a19.29,19.29,0,0,0,5.62,4.09c6.13,3.32,12.78,4.86,14.05,10.73.77,5.11-5.36,11-12.26,15.85-10.22,7.66-18.14,10.47-31.94,21.46-10,7.92-19.93,19.17-17.38,30.66,1.54,6.65,9,10,20.7,9.46,15.33-.51,33.48-10.22,52.89-25.81,5.22-4.24,10-8.28,14.39-12-3.58,7.74-5.85,15.56-4.41,22,2,9.2,8.43,14.56,18.65,15.07,10.48.51,33.48-8.43,57.5-30.66a19.45,19.45,0,0,0,7.92,7.15,27.14,27.14,0,0,0,11.5,2.81c10.22,0,20.15-5.07,27.56-10.44,2.26-1.75,3.8-3.1,6-5-2.21,5.73-3.41,9.66-3.41,14.68,0,8.69,3.33,15.84,10.74,20.44,4.6,3.07,10.22,4.09,16.09,4.09,20.45,0,46-14.06,58-22.49,14.82-10.73,33.73-27.34,39.1-33.73C1856.83,1763.18,1857.08,1760.37,1855.8,1759.35Zm-82-10.48c19.42-19.67,44.46-31.68,49.06-26.57,4.34,4.34-15.33,23.76-30.66,34.49-13,9-24,14.06-35,16.87A95.11,95.11,0,0,1,1773.78,1748.87ZM1413.7,1660c-8.68,6.13-15.33,6.13-16.86,3.83-2-3.07,1.53-9.2,7.15-13.54,3.84-3.07,12.27-6.39,20.7-7.92C1423.41,1649.21,1418.81,1656.37,1413.7,1660Zm270.64,115.75c-1-8.94,1.79-19.67,5.62-26.83,11.5-21.21,21.46-25.55,24.53-23,4.09,3.58-9.2,26.58-25.3,44.72C1687.66,1772.12,1686.13,1773.91,1684.34,1775.7Z" transform="translate(-54.09 -1549.03)"/></g><g id="Layer_5" data-name="Layer 5"><path d="M878.81,1703.59c3.84,0,10.74-6.39,15.08-14.31,4.6-7.92,5.11-14.31,1.28-14.31s-10.73,6.39-15.08,14.31C875.49,1697.2,875,1703.59,878.81,1703.59Z" transform="translate(-54.09 -1549.03)"/></g><g id="Layer_4" data-name="Layer 4"><path d="M1117.33,1718.58c2-2.81-21.3,13.31-23.86,8.26.51-3.83-.51-8.18-5.37-10.22a19.77,19.77,0,0,0-7.15-1.28c-17.88,0-50.83,17.11-73.57,46l0,0A275.12,275.12,0,0,1,974.64,1791c-12.27,9.71-23.77,17.63-31.94,18.65-5.11.77-6.65-1.79-6.39-4.6,1.53-10.47,16.1-29.38,33.47-49.06,7.16-8.18,12.27-18.14,12.27-25.81,0-6.13-3.07-11-10.73-12.26-15.08-2.81-35.52,12-42.68,17.63,6.9-9.71,10.74-15.33,10.74-16.61-.26-1.54-10.23-1.28-11.76,0-2.55,2-14.31,17.88-34.24,45-1,1.31-1.91,2.56-2.84,3.83-7.52,7.29-18.45,16.76-24.25,21.47-7.92,6.39-21.72,16.86-31.17,19.93-5.88,2-10.22,1.53-9-6.64,1.28-10,7.67-21.47,19.68-40.12,11.75-18.4,25-36.8,28.62-42.16,2-2.82-6.39-1.79-8.18-.51-3.57,2.81-24.53,25.29-35.26,39.09l-2.77,3.56A275.89,275.89,0,0,1,796.53,1791c-12.27,9.71-23.77,17.63-31.94,18.65-5.12.77-6.65-1.79-6.39-4.6,1.53-10.47,16.1-29.38,33.47-49.06,7.16-8.18,12.27-18.14,12.27-25.81,0-6.13-3.07-11-10.73-12.26-15.08-2.81-35.52,12-42.68,17.63,6.9-9.71,10.73-15.33,10.73-16.61-.25-1.54-10.22-1.28-11.75,0-2.56,2-14.31,17.88-34.24,45-.73,1-1.41,1.9-2.12,2.85A296.42,296.42,0,0,1,686.64,1790c-18.91,14.56-38.84,23.76-46,22.48a2.91,2.91,0,0,1-2.3-1.53c-.77-2.56.25-8.18,5.11-13.8,15.33-18.65,40.88-38.84,42.42-53.66,1-11.75-11-14.31-16.61-17.38a15.85,15.85,0,0,1-5.63-4.85s3.84-3.84,4.6-8.18c.51-4.34-.51-8.43-6.13-8.43-3.32,0-7.15,2.55-8.69,8.43a9.53,9.53,0,0,0,1,8.18c-.77,3.83-10.23,15.33-18.66,24.78-7,8.07-13.33,15.59-18.62,21.15-7.52,7.37-18.87,17.2-24.82,22-9.46,7.66-27.35,21-36,21-2.56,0-4.35-1.28-4.35-5.11,0-10.22,6.9-22.48,19.93-42.67,12-18.66,28.88-40.89,28.88-42.93,0-.77-1-1-2.56-1-5.62,0-5.36.51-13.29,8.43v-1.79c0-4.85-3.06-9.71-12.52-9.71-17.88,0-50.85,17.12-73.59,46-1,1.24-1.91,2.47-2.8,3.69-9,9.28-25.3,23.61-35.28,30.8-8.17,5.88-25,16.61-39.86,16.61-4.86,0-9.46-1-13.29-3.83-4.85-3.32-6.9-8.43-6.9-14.57a40.52,40.52,0,0,1,2.81-13.8c14.31-3.06,29.39-10,41.66-18.65,15.84-11.24,41.14-36.79,31.68-43.69-2.3-1.79-5.62-2.56-9.45-2.56-16.1,0-42.93,13.8-63.12,34.5-15.33,15.84-24.53,33.73-24.53,47.78,0,8.69,3.32,15.84,10.73,20.44,4.6,3.07,10.22,4.09,16.1,4.09,20.44,0,46-14.05,58-22.48,6.83-5,14.52-11.14,21.36-17a45.55,45.55,0,0,0-3.73,17c0,11.24,6.39,19.42,15.84,19.42,12.27,0,24.79-10.48,35.52-22.75a26.81,26.81,0,0,0-1.27,7.41c0,7.93,5.11,15.59,16.09,15.59,13.8-.25,35.78-16.86,44.72-23.51,5.83-4.33,14.63-11.73,22.11-18.55a13.39,13.39,0,0,0,1.15-.87c5.88-4.85,17.63-17.88,23-24.27,6.64-7.67,20.19-24.53,20.19-24.53a19.5,19.5,0,0,0,5.62,4.09c6.13,3.32,12.77,4.85,14.05,10.73.77,5.11-5.36,11-12.26,15.84-10.23,7.67-18.15,10.48-32,21.46-10,7.93-19.93,19.17-17.37,30.67,1.53,6.64,8.94,10,20.7,9.45,15.33-.51,33.47-10.22,52.89-25.81,1.53-1.24,3-2.45,4.45-3.66-10.16,14-16,22.54-16.45,25.38-.26,2.3,6.64,4.35,9.45,3.58,2-.25,38.33-51.87,38.33-51.87,9.71-13,25-25.3,37.82-34,11.24-7.41,23-13.28,28.37-8.43,6.64,6.13-10.74,24.28-34.5,44-11.25,9.46-22.23,21.21-21.21,34.24.77,10.48,10.22,15.33,19.16,15.59,12.27,0,28.37-12,46.77-25.81,2.91-2.24,5.75-4.54,8.48-6.82a46.07,46.07,0,0,0-4.9,11.68c-1.79,8.17,0,19.42,13.29,21.21,13.8,1.79,37.3-16.1,46.76-23.26,1.94-1.49,4.2-3.3,6.64-5.3-10.1,13.87-15.85,22.4-16.35,25.23-.26,2.3,6.64,4.35,9.45,3.58,2.05-.25,38.33-51.87,38.33-51.87,9.71-13,25-25.3,37.82-34,11.25-7.41,23-13.28,28.37-8.43,6.64,6.13-10.74,24.28-34.5,44-11.24,9.46-22.23,21.21-21.21,34.24.77,10.48,10.22,15.33,19.16,15.59,12.27,0,28.37-12,46.77-25.81,4.61-3.54,9.05-7.24,13.1-10.79a46,46,0,0,0-3.9,17.44c0,11.75,6.39,18.9,15.85,19.42,12,.51,27.85-12.78,37.56-23.26m-621.23-47c19.42-19.67,44.47-31.68,49.07-26.57,4.34,4.34-15.34,23.76-30.67,34.5-13,8.94-24,14-35,16.86A96,96,0,0,1,422.92,1748.81Zm123.94,24.54c-10.73,14.56-32.71,38.33-42.67,38.33-3.83,0-5.88-3.84-5.88-9-.26-10.73,8.94-30.15,27.6-51.36C543,1732,561.68,1721,571.39,1721c5.62,0,7.67,3.84,7.67,7.92a14.31,14.31,0,0,1-3.07,8.69C565,1750.09,556.83,1760.06,546.86,1773.35Zm463.81,37.81c-2.55-1.27-3.83-4.34-3.83-8.43,0-10.73,8.69-30.15,27.6-51.36,19.68-22.49,41.65-33.47,49.32-29.64,2.81,1.28,3.83,4.09,3.83,7.15a13.74,13.74,0,0,1-3.07,8.69c-11,12.52-19.16,22.49-29.13,35.78C1043.89,1788.93,1018.85,1815.51,1010.67,1811.16Z" transform="translate(-54.09 -1549.03)"/></g><path class="cls-1" d="M1838.5,1991.32a237.36,237.36,0,0,0,71.17-62.74c17.63-23.49,30.37-50.95,34.34-80.19,4-29.55-1.8-59.1-14.13-86.06-18.91-41.32-51.2-76.56-87.52-103.47-59.57-44.14-131-73.83-202.6-91.7-92.62-23.1-190.81-25.18-283.27-.13-105.16,28.5-201.85,92-271.39,175.72-21.17,25.48-44.38,49.76-61.7,78.11-1,1.67-2.1,3.3-3.2,4.9a62.46,62.46,0,0,0-10-.42c-15.59.5-31.48,2.75-46.85,5.17-22,3.47-44.89,8.24-64.84,18.56-14,7.23-28,19.57-24.8,36.92,2.58,14,16.45,17.49,28.93,17,20-.78,39.78-8.55,57.39-17.47,21.49-10.87,41.86-25.41,57.7-43.66,2.15-2.47,4.13-5,6-7.66a16.51,16.51,0,0,1,3.18,1.57c13.65,8.78-13.54,37.88-20.27,44.87a171.53,171.53,0,0,1-34.52,27c-30.63,18.67-65.19,30.45-99.93,38.78-71.45,17.12-146.81,20.4-220.25,13.07-149.66-19.8-245.85-69.65-348.56-166.37l-1.26-1.25c37.69-36.58,58.22-72.42,83.23-115.35,25.4-3.74,48.18-12.33,73.21-30.25,23.9-16.81,57.14-57.52,57.14-79.93,0-4.86-1.49-9-4.85-11.58a19,19,0,0,0-12-3.73c-16.06,0-38.84,13.82-55.27,28.76-26.39,24.52-52.4,59.77-72.16,88.45-14.64.38-92.38,10.42-190.47-72-5.58-4.69-9.23-2.55-5.46,1.23,43.07,43.06,126.23,86,187.9,81a8.5,8.5,0,0,0,1,0c-24.28,35.85-43.32,68.34-77.68,98.22l-1.32-1.32c-21.23-21.3-51.55-53-96.91-62.54a146.48,146.48,0,0,0-25.77-2.62c-47.44,0-97.86,24.28-107.57,74a60.65,60.65,0,0,0-1.12,11.58c0,39.22,40,71.34,100.09,68.72,45.45-2,89.66-23.47,127.6-54.51,82.4,96.89,199.34,137.36,324.75,151.94a726.26,726.26,0,0,0,203.81,3.73c40-5,79.85-13.37,117.56-27.79,29.72-11.36,59.18-26.51,82-49.09a146.66,146.66,0,0,0,16.9-20.23c5.37-7.65,11.86-17.44,11.52-27.27-.25-7.23-4.53-11.29-10.14-13.5,3.81-5.78,7.44-11.68,11.55-17.3,13.19-18.05,28.2-34.58,42.47-51.75,34.45-41.45,73-78.42,117.4-109.28A517.57,517.57,0,0,1,1505.16,1557c88.83,1.67,177.67,24.17,257.35,63.31,29.51,14.5,58.33,31.31,84.13,51.8,40.94,32.54,77.77,78.22,88.13,130.46,13,65.45-25.48,127.94-76.5,166a250.38,250.38,0,0,1-24.36,16ZM451.85,1584.7c19.43-19.79,36.23-25.4,46.32-20.91,12.32,6-7.1,51.16-48.93,79.92A140.36,140.36,0,0,1,391,1666.49C408.16,1637,424.59,1612,451.85,1584.7ZM136.63,1837.18c-47.06,0-73.2-24.65-68.72-53.78,6-38.85,47.06-64.24,93.75-64.24a116.51,116.51,0,0,1,19.42,1.49c35.79,5.58,58.1,29.41,87.23,70.64a241.65,241.65,0,0,1-113.75,44.77A155.47,155.47,0,0,1,136.63,1837.18Zm834,33.31c-18.43,11.24-28.74,18.08-50.3,21.12-12.21,1.73-28.85,1.18-26.62-16,2.44-18.68,22.46-24.35,37.27-29.28,16-5.33,37.24-8.25,58.71-11.21,8.3-1.15,16.82-2.89,25.43-2.52C1003,1847.91,987.16,1860.41,970.64,1870.49Z" transform="translate(-54.09 -1549.03)"/><g id="Layer_7-2" data-name="Layer 7"><path d="M879.35,1703.93c3.84,0,10.73-6.39,15.08-14.31,4.6-7.92,5.11-14.31,1.28-14.31s-10.74,6.39-15.08,14.31C876,1697.54,875.52,1703.93,879.35,1703.93Z" transform="translate(-54.09 -1549.03)"/></g><g id="Layer_6-2" data-name="Layer 6"><path d="M1856,1759.64c-1-1-3.58-.51-6.39,3.06-8.18,9-26.83,25.56-37.82,33.48-8.17,5.88-25,16.61-39.86,16.61-4.85,0-9.45-1-13.29-3.84-4.85-3.32-6.9-8.43-6.9-14.56a40.52,40.52,0,0,1,2.81-13.8,117.49,117.49,0,0,0,41.66-18.65c15.84-11.25,41.14-36.8,31.68-43.7-2.3-1.79-5.62-2.55-9.45-2.55-16.1,0-42.93,13.8-63.12,34.49-4.46,4.61-17.12,23.11-19.12,28.11-9,6-23.81,13.8-33.78,13.8a18.41,18.41,0,0,1-9.45-2.3,13.48,13.48,0,0,1-6.14-6.39c2.05-2.3,4.35-4.6,6.65-7.15,23.25-26.32,39.35-56.22,30.41-59.8-8.44-3.57-28.62,6.9-40.38,29.13a62.1,62.1,0,0,0-6.64,26.83,39,39,0,0,0,1.27,9.71c-17.12,16.36-36.53,29.9-47,27.35-4.35-1-5.88-5.37-5.88-10.22a35.5,35.5,0,0,1,3.32-14.06c13.55-29.64,37.06-64.14,36.8-64.9-1-2.81-5.62-2-6.9-1.28-2.8,1.78-27.92,28.17-39.22,45.8a283.27,283.27,0,0,1-28.76,25.49c-18.91,14.57-38.84,23.77-46,22.49a2.94,2.94,0,0,1-2.3-1.53c-.77-2.56.25-8.18,5.11-13.8,15.33-18.66,40.88-38.84,42.42-53.67,1-11.75-11-14.3-16.61-17.37a15.81,15.81,0,0,1-5.63-4.86s3.84-3.83,4.61-8.17c.5-4.35-.52-8.44-6.14-8.44-3.32,0-7.15,2.56-8.69,8.44a9.54,9.54,0,0,0,1,8.17c-.76,3.84-10.22,15.34-18.65,24.79-6.15,7.1-11.81,13.8-16.69,19.09-7.46,7.48-20.43,18.79-26.75,24.09-7.93,6.39-21.72,16.87-31.18,19.94-5.88,2-10.48,1.53-9.2-6.65,1.53-10,7.92-21.46,19.93-40.12,11.5-18.39,27.6-38.58,27.34-42.67,0-3.32-6.13-1.53-8.17-.51-1.79,1-18.4,25.55-30.67,41.91-17.12,22.23-33,40.63-50.34,48-6.38,2.81-10.22,1-9.45-7.16,1.28-11.24,8.18-21.21,20.19-39.61,11.49-18.39,27.59-38.58,27.34-42.67,0-3.32-6.14-1.53-8.18-.51-1.79,1-23.51,26.57-34,39.61-1.57,1.94-3.44,4.27-5.41,6.81a18.93,18.93,0,0,0-3.29,3.15c-9.2,10.48-37.56,35-87.64,45a136.69,136.69,0,0,1-24,2c-23.51,0-49.58-5.88-60-25.55a46.55,46.55,0,0,1-5.12-22c0-28.36,21.21-67.71,76.41-106.81,40.63-29.13,78.19-39.86,100.68-39.86,7.66,0,13.54,1.27,17.12,3.57a14.58,14.58,0,0,1,6.64,12.52c-7.92.77-16.86,3.07-24.53,8.18-9.71,6.39-13.54,16.87-9.71,21.72,2,2.81,5.62,3.83,9.71,3.83a29.87,29.87,0,0,0,17.63-6.38c4.6-3.84,11.5-13.55,13-23.51h3.83c2.81.51,4.09-.51,4.34-1.54,0-1-1-2.3-3.32-2.3a23.87,23.87,0,0,0-4.34-.25c0-6.13-2-12-8.18-16.36-4.86-3.57-13-5.36-23.77-5.36-35.26,0-97.35,20.19-150.25,64.9-37.56,31.69-49.31,61.59-49.31,84.58,0,14.83,4.85,26.84,10.73,34.25,13.54,17.37,39.09,25.29,68,25.29a178.42,178.42,0,0,0,36.28-3.83c37.15-7.61,59.64-21.39,74.69-33.77a38.92,38.92,0,0,0-4.14,10.77c-1.54,7.41,0,19.42,13,21.21,10.47,1.53,27.34-7.92,37.56-16.35,0,6.9,3.07,15.07,13.54,16.35,14.06,1.79,37.31-16.35,46.76-23.25,5.91-4.43,14.62-11.67,22.06-18.37a14.54,14.54,0,0,0,1.46-1c5.88-4.86,17.63-17.89,23-24.28,6.64-7.66,20.18-24.53,20.18-24.53a19.43,19.43,0,0,0,5.63,4.09c6.13,3.32,12.77,4.86,14,10.73.77,5.11-5.36,11-12.26,15.85-10.23,7.66-18.15,10.47-31.94,21.46-10,7.92-19.94,19.17-17.38,30.66,1.53,6.65,8.94,10,20.7,9.46,15.33-.51,33.47-10.22,52.89-25.81,5.22-4.24,10-8.28,14.39-12.05-3.58,7.74-5.85,15.56-4.42,22,2.05,9.19,8.44,14.56,18.66,15.07,10.47.51,33.47-8.43,57.49-30.66a19.65,19.65,0,0,0,7.92,7.15,27.21,27.21,0,0,0,11.5,2.81c10.22,0,20.16-5.08,27.57-10.44,2.26-1.75,3.8-3.1,6-5-2.21,5.73-3.41,9.66-3.41,14.68,0,8.69,3.32,15.84,10.73,20.44,4.6,3.07,10.22,4.09,16.1,4.09,20.44,0,46-14.06,58-22.49,14.82-10.73,33.73-27.34,39.09-33.73C1857.06,1763.47,1857.32,1760.66,1856,1759.64Zm-82-10.48c19.42-19.67,44.46-31.68,49.06-26.57,4.34,4.34-15.33,23.76-30.67,34.49-13,9-24,14.06-35,16.87A95.11,95.11,0,0,1,1774,1749.16Zm-360.08-88.92c-8.69,6.13-15.33,6.13-16.87,3.83-2-3.07,1.54-9.2,7.16-13.54,3.83-3.07,12.27-6.39,20.7-7.93C1423.65,1649.5,1419.05,1656.66,1413.94,1660.24ZM1684.57,1776c-1-8.94,1.79-19.67,5.62-26.83,11.51-21.21,21.47-25.55,24.54-23,4.09,3.58-9.2,26.58-25.3,44.72C1687.9,1772.41,1686.36,1774.2,1684.57,1776Z" transform="translate(-54.09 -1549.03)"/></g><g id="Layer_5-2" data-name="Layer 5"><path d="M879.05,1703.88c3.83,0,10.73-6.39,15.08-14.31,4.6-7.93,5.11-14.31,1.27-14.31s-10.73,6.38-15.07,14.31C875.73,1697.49,875.22,1703.88,879.05,1703.88Z" transform="translate(-54.09 -1549.03)"/></g><g id="Layer_4-2" data-name="Layer 4"><path d="M1117.57,1718.87c2-2.81-21.3,13.31-23.87,8.26.52-3.83-.51-8.18-5.36-10.22a19.87,19.87,0,0,0-7.16-1.28c-17.88,0-50.82,17.11-73.57,46l0,0a273.5,273.5,0,0,1-32.7,29.65c-12.27,9.71-23.77,17.63-31.94,18.65-5.12.77-6.65-1.79-6.39-4.6,1.53-10.48,16.09-29.38,33.47-49.06,7.15-8.18,12.26-18.14,12.26-25.81,0-6.13-3.06-11-10.73-12.27-15.07-2.81-35.51,12-42.67,17.64,6.9-9.71,10.73-15.33,10.73-16.61-.25-1.54-10.22-1.28-11.75,0-2.56,2-14.31,17.88-34.24,45l-2.85,3.83c-7.51,7.29-18.44,16.75-24.24,21.47-7.92,6.39-21.72,16.86-31.18,19.93-5.87,2-10.22,1.53-8.94-6.64,1.28-10,7.67-21.47,19.68-40.12,11.75-18.4,25-36.8,28.62-42.16,2-2.82-6.39-1.79-8.18-.52-3.58,2.81-24.53,25.3-35.26,39.1-.85,1.08-1.79,2.28-2.77,3.56a276.81,276.81,0,0,1-31.74,28.64c-12.26,9.71-23.76,17.63-31.94,18.65-5.11.77-6.64-1.79-6.39-4.6,1.54-10.48,16.1-29.38,33.48-49.06,7.15-8.18,12.26-18.14,12.26-25.81,0-6.13-3.06-11-10.73-12.27-15.07-2.81-35.52,12-42.67,17.64,6.9-9.71,10.73-15.33,10.73-16.61-.25-1.54-10.22-1.28-11.75,0-2.56,2-14.31,17.88-34.24,45-.73,1-1.42,1.9-2.12,2.85a296.42,296.42,0,0,1-26.51,23.22c-18.91,14.56-38.84,23.76-46,22.48a3,3,0,0,1-2.3-1.53c-.76-2.56.26-8.18,5.11-13.8,15.34-18.65,40.89-38.84,42.42-53.66,1-11.76-11-14.31-16.61-17.38a15.74,15.74,0,0,1-5.62-4.85s3.83-3.84,4.6-8.18c.51-4.34-.51-8.43-6.13-8.43-3.32,0-7.16,2.55-8.69,8.43a9.54,9.54,0,0,0,1,8.18c-.76,3.83-10.22,15.33-18.65,24.78-7,8.07-13.33,15.59-18.62,21.15-7.52,7.37-18.87,17.2-24.83,22-9.45,7.66-27.34,21-36,21-2.55,0-4.34-1.28-4.34-5.11,0-10.22,6.9-22.49,19.93-42.67,12-18.66,28.88-40.89,28.88-42.93,0-.77-1-1-2.56-1-5.62,0-5.37.51-13.29,8.43v-1.79c0-4.85-3.06-9.71-12.52-9.71-17.89,0-50.85,17.12-73.59,46-1,1.25-1.91,2.48-2.8,3.7-9,9.28-25.31,23.61-35.28,30.8-8.18,5.88-25,16.61-39.86,16.61-4.86,0-9.46-1-13.29-3.83-4.86-3.32-6.9-8.43-6.9-14.57a40.29,40.29,0,0,1,2.81-13.8,117.27,117.27,0,0,0,41.65-18.65c15.85-11.24,41.14-36.79,31.69-43.7-2.3-1.78-5.62-2.55-9.46-2.55-16.1,0-42.93,13.8-63.11,34.5C389.18,1766,380,1783.86,380,1797.91c0,8.69,3.32,15.84,10.73,20.44,4.6,3.07,10.22,4.09,16.1,4.09,20.44,0,46-14,58-22.49,6.83-4.94,14.52-11.13,21.37-17a45.55,45.55,0,0,0-3.73,17c0,11.25,6.39,19.43,15.84,19.43,12.27,0,24.79-10.48,35.52-22.75a26.48,26.48,0,0,0-1.28,7.41c0,7.92,5.11,15.59,16.1,15.59,13.8-.25,35.77-16.86,44.72-23.51,5.83-4.33,14.63-11.73,22.11-18.55.37-.26.75-.54,1.15-.87,5.87-4.85,17.63-17.89,23-24.27,6.64-7.67,20.18-24.53,20.18-24.53a19.37,19.37,0,0,0,5.62,4.08c6.14,3.33,12.78,4.86,14.06,10.74.76,5.11-5.37,11-12.27,15.84C657,1766.22,649.06,1769,635.26,1780c-10,7.93-19.93,19.17-17.38,30.67,1.54,6.64,9,10,20.7,9.45,15.34-.51,33.48-10.22,52.9-25.81,1.52-1.24,3-2.45,4.45-3.66-10.16,14-15.95,22.54-16.45,25.38-.26,2.3,6.64,4.35,9.45,3.58,2-.25,38.33-51.87,38.33-51.87,9.71-13,25-25.3,37.82-34,11.24-7.41,23-13.28,28.36-8.43,6.65,6.13-10.73,24.27-34.49,44-11.25,9.46-22.24,21.21-21.21,34.24.76,10.48,10.22,15.33,19.16,15.59,12.27,0,28.37-12,46.76-25.81,2.92-2.24,5.76-4.54,8.48-6.82a46.38,46.38,0,0,0-4.89,11.68c-1.79,8.17,0,19.42,13.28,21.21,13.8,1.78,37.31-16.1,46.77-23.26,1.93-1.49,4.2-3.3,6.63-5.3-10.09,13.87-15.84,22.4-16.34,25.23-.26,2.3,6.64,4.35,9.45,3.58,2.05-.25,38.33-51.87,38.33-51.87,9.71-13,25-25.3,37.82-34,11.24-7.41,23-13.28,28.36-8.43,6.65,6.13-10.73,24.27-34.49,44-11.25,9.46-22.23,21.21-21.21,34.24.76,10.48,10.22,15.33,19.16,15.59,12.27,0,28.37-12,46.77-25.81,4.61-3.54,9.05-7.24,13.09-10.79A45.94,45.94,0,0,0,991,1800c0,11.76,6.39,18.91,15.84,19.43,12,.51,27.86-12.78,37.57-23.26m-621.23-47c19.42-19.67,44.46-31.68,49.06-26.57,4.35,4.34-15.33,23.76-30.66,34.5-13,8.94-24,14-35,16.86A95.7,95.7,0,0,1,423.16,1749.1Zm123.94,24.53c-10.73,14.57-32.71,38.33-42.67,38.33-3.84,0-5.88-3.83-5.88-8.94-.26-10.73,8.94-30.15,27.59-51.36,17.13-19.42,35.78-30.41,45.49-30.41,5.62,0,7.67,3.84,7.67,7.92a14.31,14.31,0,0,1-3.07,8.69C565.24,1750.38,557.06,1760.35,547.1,1773.63Zm463.81,37.82c-2.55-1.27-3.83-4.34-3.83-8.43,0-10.73,8.69-30.15,27.6-51.36,19.67-22.49,41.65-33.48,49.31-29.64,2.81,1.28,3.84,4.09,3.84,7.15a13.74,13.74,0,0,1-3.07,8.69c-11,12.52-19.16,22.49-29.13,35.77C1044.13,1789.22,1019.09,1815.8,1010.91,1811.45Z" transform="translate(-54.09 -1549.03)"/></g><path class="cls-1" d="M1838.74,1991.61a237.36,237.36,0,0,0,71.17-62.74c17.63-23.49,30.36-50.95,34.34-80.19,4-29.55-1.8-59.1-14.14-86.06-18.91-41.32-51.2-76.56-87.51-103.47-59.57-44.14-131-73.83-202.6-91.7-92.63-23.1-190.82-25.18-283.28-.13-105.15,28.49-201.84,92-271.38,175.72-21.17,25.48-44.38,49.76-61.71,78.11-1,1.67-2.09,3.29-3.19,4.9a62.53,62.53,0,0,0-10-.42c-15.58.5-31.48,2.75-46.85,5.17-22,3.47-44.88,8.24-64.84,18.56-14,7.23-28,19.57-24.79,36.92,2.58,14,16.45,17.49,28.93,17,20-.78,39.77-8.56,57.39-17.47,21.48-10.87,41.86-25.41,57.7-43.66,2.14-2.47,4.12-5,6-7.66a16.8,16.8,0,0,1,3.18,1.57c13.65,8.78-13.55,37.88-20.28,44.87a171.19,171.19,0,0,1-34.51,27c-30.63,18.67-65.2,30.45-99.93,38.78-71.46,17.12-146.81,20.4-220.26,13.07-149.65-19.8-245.84-69.65-348.56-166.37l-1.25-1.25c37.68-36.58,58.22-72.42,83.23-115.35,25.4-3.74,48.18-12.33,73.2-30.25,23.91-16.81,57.15-57.52,57.15-79.93,0-4.86-1.5-9-4.86-11.58a19,19,0,0,0-12-3.73c-16.06,0-38.84,13.81-55.28,28.75-26.38,24.53-52.39,59.78-72.15,88.46-14.64.38-92.38,10.42-190.47-72-5.58-4.69-9.23-2.55-5.46,1.23,43.07,43.06,126.23,86,187.89,81a8.67,8.67,0,0,0,1,0c-24.28,35.85-43.33,68.34-77.68,98.22l-1.33-1.32c-21.23-21.3-51.54-53-96.91-62.54a146.39,146.39,0,0,0-25.77-2.62c-47.43,0-97.85,24.28-107.56,74A60.58,60.58,0,0,0,54.33,1796c0,39.22,40,71.34,100.09,68.72,45.44-2,89.65-23.47,127.6-54.51,82.4,96.89,199.33,137.36,324.75,151.94a726.25,726.25,0,0,0,203.81,3.73c40-5,79.85-13.37,117.56-27.79,29.71-11.36,59.18-26.51,82-49.09a147.37,147.37,0,0,0,16.9-20.23c5.37-7.65,11.85-17.44,11.52-27.27-.25-7.23-4.53-11.29-10.14-13.5,3.81-5.78,7.44-11.68,11.54-17.3,13.2-18,28.21-34.58,42.48-51.75,34.45-41.45,73-78.42,117.4-109.28a517.52,517.52,0,0,1,305.55-92.38c88.83,1.67,177.67,24.17,257.34,63.31,29.52,14.5,58.34,31.31,84.13,51.8,40.94,32.54,77.78,78.22,88.14,130.46,13,65.45-25.48,127.94-76.5,166a249.31,249.31,0,0,1-24.37,16ZM452.09,1585c19.42-19.8,36.23-25.4,46.31-20.92,12.33,6-7.09,51.17-48.92,79.93a140.34,140.34,0,0,1-58.27,22.78C408.39,1637.28,424.83,1612.25,452.09,1585ZM136.87,1837.47c-47.06,0-73.21-24.65-68.72-53.79,6-38.84,47.06-64.24,93.74-64.24a116.38,116.38,0,0,1,19.42,1.5c35.79,5.58,58.11,29.41,87.23,70.64a241.61,241.61,0,0,1-113.74,44.77A155.47,155.47,0,0,1,136.87,1837.47Zm834,33.31c-18.43,11.24-28.75,18.08-50.3,21.12-12.21,1.73-28.85,1.18-26.62-16,2.43-18.68,22.46-24.35,37.27-29.28,16-5.33,37.23-8.25,58.71-11.22,8.3-1.14,16.82-2.88,25.43-2.51C1003.21,1848.2,987.4,1860.7,970.88,1870.78Z" transform="translate(-54.09 -1549.03)"/><circle class="cls-1" cx="1755.51" cy="452.48" r="36"/></g><g id="Layer_3" data-name="Layer 3"><circle class="cls-1" cx="1755.27" cy="452.19" r="36"/></g></svg>